<svg width="24" height="24" viewBox="0 0 24 24" fill="none" xmlns="http://www.w3.org/2000/svg">
<g clip-path="url(#clip0_556_172)">
<path d="M17.4862 -9.8604e-05C16.125 0.0917763 14.6681 0.901776 13.7662 1.9949C12.9768 2.95678 12.315 4.36865 12.5662 5.8349C12.3412 5.76553 12.1368 5.75803 11.8912 5.6699C11.2218 5.43178 10.4568 5.1749 9.50622 5.1749C7.6181 5.1749 5.68497 6.29803 4.46622 8.1749C2.69247 10.9012 3.04872 15.6993 5.74122 19.7999C6.2156 20.5199 6.76872 21.3055 7.45122 21.9299C8.13372 22.5543 8.95872 23.0305 9.92622 23.0399C10.7531 23.0493 11.3287 22.7737 11.8462 22.5449C12.3637 22.3162 12.8456 22.1137 13.7512 22.1099C13.7568 22.1099 13.7606 22.1099 13.7662 22.1099C14.6681 22.1024 15.135 22.3012 15.6412 22.5299C16.1475 22.7587 16.7175 23.0474 17.5462 23.0399C18.5325 23.0324 19.3706 22.4924 20.0662 21.8249C20.7618 21.1574 21.3337 20.338 21.8062 19.6199C22.4831 18.5887 22.755 18.0262 23.2762 16.8749C23.3306 16.7549 23.3325 16.6162 23.28 16.4943C23.2293 16.3724 23.13 16.2768 23.0062 16.2299C21.3 15.5849 20.3268 14.0755 20.1862 12.4799C20.0456 10.8843 20.7206 9.24178 22.4212 8.3099C22.5468 8.2424 22.635 8.12428 22.665 7.98553C22.6931 7.84678 22.6593 7.70053 22.5712 7.5899C21.3506 6.07303 19.6331 5.1749 17.9512 5.1749C16.8787 5.1749 16.0912 5.42803 15.4462 5.6699C15.3393 5.71115 15.2606 5.7074 15.1612 5.7449C15.8156 5.3999 16.3931 4.92178 16.8262 4.3649C17.6137 3.35428 18.2212 1.91615 17.9962 0.404901C17.9587 0.157401 17.7356 -0.0188486 17.4862 -9.8604e-05ZM16.9762 1.1399C16.9443 2.10928 16.6125 3.05803 16.0612 3.7649C15.4837 4.5074 14.5125 5.02115 13.5712 5.1749C13.5881 4.24303 13.9556 3.2774 14.5162 2.5949C15.105 1.8824 16.08 1.36865 16.9762 1.1399ZM9.50622 6.1349C9.92622 6.1349 10.9012 6.33553 11.5612 6.5699C12.2212 6.80428 12.9168 7.0799 13.7362 7.0799C14.5368 7.0799 15.1706 6.8024 15.7912 6.5699C16.4118 6.3374 17.0306 6.1349 17.9512 6.1349C19.1531 6.1349 20.4525 6.75928 21.4762 7.8449C19.8375 9.00178 19.0706 10.8055 19.2262 12.5549C19.3818 14.323 20.4468 16.0012 22.1962 16.8749C22.1937 16.8804 22.1912 16.8858 22.1887 16.8912C21.8142 17.7071 21.5644 18.2511 21.0112 19.0949C20.5518 19.7943 20.0062 20.5593 19.4062 21.1349C18.8062 21.7105 18.1706 22.0743 17.5312 22.0799C16.9143 22.0855 16.5637 21.9018 16.0312 21.6599C15.4987 21.418 14.8106 21.1405 13.7512 21.1499C12.6937 21.1555 11.9962 21.4218 11.4562 21.6599C10.9162 21.898 10.5618 22.0855 9.94122 22.0799C9.28497 22.0743 8.6756 21.7555 8.09622 21.2249C7.51685 20.6943 6.99372 19.9705 6.53622 19.2749C4.01622 15.4349 3.81372 10.9237 5.26122 8.6999C6.32247 7.06678 9.08622 6.1349 9.50622 6.1349Z" fill="black"/>
<path d="M9.50622 6.1349C9.92622 6.1349 10.9012 6.33553 11.5612 6.5699C12.2212 6.80428 12.9168 7.0799 13.7362 7.0799C14.5368 7.0799 15.1706 6.8024 15.7912 6.5699C16.4118 6.3374 17.0306 6.1349 17.9512 6.1349C19.1531 6.1349 20.4525 6.75928 21.4762 7.8449C19.8375 9.00178 19.0706 10.8055 19.2262 12.5549C19.3818 14.323 20.4468 16.0012 22.1962 16.8749L22.1887 16.8912C21.8142 17.7071 21.5644 18.2511 21.0112 19.0949C20.5518 19.7943 20.0062 20.5593 19.4062 21.1349C18.8062 21.7105 18.1706 22.0743 17.5312 22.0799C16.9143 22.0855 16.5637 21.9018 16.0312 21.6599C15.4987 21.418 14.8106 21.1405 13.7512 21.1499C12.6937 21.1555 11.9962 21.4218 11.4562 21.6599C10.9162 21.898 10.5618 22.0855 9.94122 22.0799C9.28497 22.0743 8.6756 21.7555 8.09622 21.2249C7.51685 20.6943 6.99372 19.9705 6.53622 19.2749C4.01622 15.4349 3.81372 10.9237 5.26122 8.6999C6.32247 7.06678 9.08622 6.1349 9.50622 6.1349Z" fill="black"/>
<path d="M16.9762 1.1399C16.9443 2.10928 16.6125 3.05803 16.0612 3.7649C15.4837 4.5074 14.5125 5.02115 13.5712 5.1749C13.5881 4.24303 13.9556 3.2774 14.5162 2.5949C15.105 1.8824 16.08 1.36865 16.9762 1.1399Z" fill="black"/>
</g>
<defs>
<clipPath id="clip0_556_172">
<rect width="24" height="24" fill="white"/>
</clipPath>
</defs>
</svg>
